<?xml version="1.0" encoding="UTF-8"?>
<!-- Generator: Adobe Illustrator 25.2.1, SVG Export Plug-In . SVG Version: 6.00 Build 0)  -->
<svg version="1.1" id="Layer_1" xmlns="http://www.w3.org/2000/svg" xmlns:xlink="http://www.w3.org/1999/xlink" x="0px" y="0px" viewBox="0 0 32 15" style="enable-background:new 0 0 32 15;" xml:space="preserve" nighteye="disabled">
<path style="fill: #b91c1c" d="M31.9,4.3c0,0,0.1,0,0.1,0V0.8C32,0.4,31.6,0,31.2,0H16.4  c0,0.2-0.1,0.3-0.3,0.3c-0.2,0-0.3-0.1-0.3-0.3h-15C0.4,0,0,0.4,0,0.8v3.4c0,0,0.1,0,0.1,0c1.2,0.4,2.3,1.5,2.3,3.3  c0,1.8-1.1,2.9-2.3,3.3c0,0-0.1,0-0.1,0v3.2C0,14.6,0.4,15,0.8,15h15v-0.8c0-0.2,0.1-0.3,0.3-0.3c0.2,0,0.3,0.1,0.3,0.3V15h14.8  c0.5,0,0.8-0.4,0.8-0.8V11c0,0-0.1,0-0.1,0c-1.2-0.4-2.3-1.5-2.3-3.3C29.5,5.8,30.6,4.7,31.9,4.3z M16.4,12.2c0,0.2-0.1,0.3-0.3,0.3  c-0.2,0-0.3-0.1-0.3-0.3v-1.1c0-0.2,0.1-0.3,0.3-0.3c0.2,0,0.3,0.1,0.3,0.3V12.2z M16.4,9.2c0,0.2-0.1,0.3-0.3,0.3  c-0.2,0-0.3-0.1-0.3-0.3V8.1c0-0.2,0.1-0.3,0.3-0.3c0.2,0,0.3,0.1,0.3,0.3V9.2z M16.4,6.1c0,0.2-0.1,0.3-0.3,0.3  c-0.2,0-0.3-0.1-0.3-0.3V5c0-0.2,0.1-0.3,0.3-0.3c0.2,0,0.3,0.1,0.3,0.3V6.1z M16.4,3.1c0,0.2-0.1,0.3-0.3,0.3  c-0.2,0-0.3-0.1-0.3-0.3V1.9c0-0.2,0.1-0.3,0.3-0.3c0.2,0,0.3,0.1,0.3,0.3V3.1z"/>
</svg>